<svg xmlns="http://www.w3.org/2000/svg" width="1080" height="1350" viewBox="0 0 1080 1350" role="img" aria-labelledby="title desc">
  <title id="title">CodeBridge Promotional Poster</title>
  <desc id="desc">A promotional poster for CodeBridge, a 56-day programming learning website with syntax bridges, AI review, code runner, and daily guidance.</desc>
  <defs>
    <linearGradient id="bg" x1="0" y1="0" x2="1" y2="1">
      <stop offset="0" stop-color="#f7faf6"/>
      <stop offset="0.52" stop-color="#eef7f0"/>
      <stop offset="1" stop-color="#f3efff"/>
    </linearGradient>
    <linearGradient id="purple" x1="0" y1="0" x2="1" y2="1">
      <stop offset="0" stop-color="#8b5cf6"/>
      <stop offset="1" stop-color="#5b21b6"/>
    </linearGradient>
    <linearGradient id="green" x1="0" y1="0" x2="1" y2="1">
      <stop offset="0" stop-color="#2f9b72"/>
      <stop offset="1" stop-color="#176b74"/>
    </linearGradient>
    <pattern id="grid" width="48" height="48" patternUnits="userSpaceOnUse">
      <path d="M 48 0 L 0 0 0 48" fill="none" stroke="#dbe8dc" stroke-width="1"/>
      <circle cx="0" cy="0" r="2" fill="#c9dccd"/>
    </pattern>
    <filter id="shadow" x="-20%" y="-20%" width="140%" height="140%">
      <feDropShadow dx="0" dy="20" stdDeviation="24" flood-color="#20372d" flood-opacity="0.14"/>
    </filter>
    <style>
      .sans { font-family: Inter, ui-sans-serif, system-ui, -apple-system, BlinkMacSystemFont, "Segoe UI", Arial, sans-serif; }
      .mono { font-family: "SFMono-Regular", Consolas, "Liberation Mono", Menlo, monospace; }
      .ink { fill: #17211d; }
      .muted { fill: #5e6c61; }
      .green { fill: #176b54; }
      .white { fill: #ffffff; }
      .small-caps { font-size: 24px; font-weight: 900; letter-spacing: 3px; }
      .card-title { font-size: 26px; font-weight: 900; }
      .card-copy { font-size: 22px; font-weight: 650; }
      .chip { font-size: 23px; font-weight: 900; }
    </style>
  </defs>

  <rect width="1080" height="1350" fill="url(#bg)"/>
  <rect width="1080" height="1350" fill="url(#grid)" opacity="0.48"/>
  <circle cx="930" cy="90" r="170" fill="#7c3aed" opacity="0.10"/>
  <circle cx="116" cy="1110" r="230" fill="#27745a" opacity="0.10"/>

  <g transform="translate(76 72)">
    <rect x="0" y="0" width="108" height="108" rx="22" fill="url(#purple)" filter="url(#shadow)"/>
    <text class="sans white" x="54" y="72" text-anchor="middle" font-size="50" font-weight="950">11</text>
    <text class="sans green small-caps" x="132" y="39">PROGRAMMING LEARNING SITE</text>
    <text class="sans ink" x="132" y="89" font-size="44" font-weight="950">CodeBridge</text>
  </g>

  <g transform="translate(76 220)">
    <text class="sans ink" x="0" y="0" font-size="82" font-weight="950">Learn new syntax</text>
    <text class="sans ink" x="0" y="92" font-size="82" font-weight="950">through what</text>
    <text class="sans ink" x="0" y="184" font-size="82" font-weight="950">you already know.</text>
    <rect x="0" y="224" width="786" height="6" rx="3" fill="url(#green)"/>
    <text class="sans muted" x="0" y="278" font-size="31" font-weight="650">A 56-day bridge course for C++, C, Java, Python, and Racket.</text>
  </g>

  <g transform="translate(76 560)" filter="url(#shadow)">
    <rect x="0" y="0" width="928" height="430" rx="26" fill="#ffffff"/>
    <rect x="0" y="0" width="928" height="72" rx="26" fill="#17211d"/>
    <circle cx="40" cy="36" r="9" fill="#ff5f57"/>
    <circle cx="72" cy="36" r="9" fill="#ffbd2e"/>
    <circle cx="104" cy="36" r="9" fill="#28c840"/>
    <text class="mono" x="146" y="45" fill="#d9f3e5" font-size="22">codebridge.lesson/day02/input</text>

    <g transform="translate(34 104)">
      <rect width="396" height="286" rx="18" fill="#f5faf6" stroke="#dce8dd"/>
      <text class="sans green" x="24" y="44" font-size="22" font-weight="950">Known Language</text>
      <text class="mono ink" x="24" y="88" font-size="22">int age;</text>
      <text class="mono ink" x="24" y="126" font-size="22">std::cin &gt;&gt; age;</text>
      <text class="mono ink" x="24" y="164" font-size="22">std::cout &lt;&lt; age;</text>
      <rect x="24" y="202" width="348" height="52" rx="12" fill="#eaf6ee"/>
      <text class="mono green" x="44" y="235" font-size="21">Input: 16  Output: 16</text>
    </g>

    <g transform="translate(498 104)">
      <rect width="396" height="286" rx="18" fill="#f8f5ff" stroke="#ddd2ff"/>
      <text class="sans" x="24" y="44" font-size="22" font-weight="950" fill="#5b21b6">Target Language</text>
      <text class="mono ink" x="24" y="88" font-size="22">(display "Age: ")</text>
      <text class="mono ink" x="24" y="126" font-size="22">(define age</text>
      <text class="mono ink" x="24" y="164" font-size="22">  (string-&gt;number</text>
      <text class="mono ink" x="24" y="202" font-size="22">   (read-line)))</text>
      <rect x="24" y="232" width="348" height="38" rx="12" fill="#eee7ff"/>
      <text class="mono" x="44" y="258" font-size="18" fill="#5b21b6">Expected output shown instantly</text>
    </g>
  </g>

  <g transform="translate(76 1040)">
    <g>
      <rect width="282" height="112" rx="20" fill="#ffffff" stroke="#dce8dd"/>
      <circle cx="42" cy="56" r="24" fill="#edf8f1"/>
      <text class="sans green" x="42" y="65" text-anchor="middle" font-size="28" font-weight="950">56</text>
      <text class="sans ink card-title" x="84" y="46">Day Plan</text>
      <text class="sans muted card-copy" x="84" y="80">step-by-step lessons</text>
    </g>
    <g transform="translate(323 0)">
      <rect width="282" height="112" rx="20" fill="#ffffff" stroke="#dce8dd"/>
      <circle cx="42" cy="56" r="24" fill="#f1ecff"/>
      <text class="sans" x="42" y="65" text-anchor="middle" font-size="28" font-weight="950" fill="#7c3aed">AI</text>
      <text class="sans ink card-title" x="84" y="46">Homework Review</text>
      <text class="sans muted card-copy" x="84" y="80">line-by-line feedback</text>
    </g>
    <g transform="translate(646 0)">
      <rect width="282" height="112" rx="20" fill="#ffffff" stroke="#dce8dd"/>
      <circle cx="42" cy="56" r="24" fill="#eef7f8"/>
      <text class="sans green" x="42" y="65" text-anchor="middle" font-size="28" font-weight="950">&gt;_</text>
      <text class="sans ink card-title" x="84" y="46">Code Runner</text>
      <text class="sans muted card-copy" x="84" y="80">sample input + output</text>
    </g>
  </g>

  <g transform="translate(76 1206)">
    <rect x="0" y="0" width="928" height="84" rx="22" fill="#17211d"/>
    <text class="sans white" x="34" y="53" font-size="29" font-weight="850">Start with CodeBridge today</text>
    <rect x="620" y="18" width="274" height="48" rx="14" fill="url(#purple)"/>
    <text class="sans white" x="757" y="50" text-anchor="middle" font-size="20" font-weight="950">codebridge.onrender.com</text>
  </g>
</svg>
